<svg version="1.2" baseProfile="tiny-ps" xmlns="http://www.w3.org/2000/svg" viewBox="0 0 183 205" width="183" height="205">
	<title>twitter_gray</title>
	<style>
		tspan { white-space:pre }
		.shp0 { opacity: 0.102;fill: #ffffff } 
	</style>
	<path id="twitter" class="shp0" d="M114.47 17.35C129.51 11.51 139.6 14.07 149.88 18.27C156.21 15.3 163.35 8.53 167.42 4.14C168.71 2.66 170.01 1.17 171.3 -0.31C171.29 8.47 169.64 15.95 165.38 22.73C164.43 24.24 163.63 26.1 162.21 27.36C162.22 27.39 162.23 27.42 162.24 27.45C170.69 24.24 176.28 17.84 182.16 13.32C182.17 13.35 182.18 13.38 182.2 13.41C180.75 20.25 178.1 27.63 174.54 33.52C173.11 35.89 171.67 38.25 170.23 40.62C173.65 49.58 176.56 58.25 177.66 66.43C184.06 113.96 169.17 153.3 132.92 181.14C119.91 191.14 96.84 201.76 78.46 203.77C69.34 204.77 60.93 205.2 52.71 204.7C48.14 204.42 43.81 203.9 39.55 203.05C38.14 202.78 36.74 202.5 35.34 202.22C39.18 200.94 44.01 200.35 48.01 198.1C51.62 196.07 55.45 194.85 58.71 192.76C66.84 187.57 73.74 182.11 79.05 175.66C81.62 172.54 85.77 168.45 87.08 164.82C82.72 166.51 78.36 166.95 74.68 167C60.39 167.18 50 161.67 40.67 151.08C44.66 150.09 56.06 147.03 57.84 143.9C52.92 145.4 47.25 144.31 43.17 143.45C30.66 140.82 18.43 133.18 12.44 116.7C14.01 116.85 15.58 116.99 17.15 117.14C20.1 117.27 22.91 116.9 26.19 116.4C27.57 116.2 30.43 116.01 31.7 114.92C31.64 114.94 31.58 114.96 31.51 114.99C28.7 113.42 24.93 113.07 22.05 111.33C12.54 105.61 1.82 95.35 0.22 79.04C-0.19 74.9 0.14 71 0.66 67.31C0.74 67.32 0.81 67.33 0.89 67.34C2.23 68.65 4.36 69.19 5.92 70.13C10.78 73.04 16.26 75.25 21.65 76.99C40.04 82.93 55.42 85.07 77.94 82.56C83.65 81.93 90.07 80.69 96.32 78.4C92.68 73.92 90.2 65.42 89.76 59.95C88.65 46.2 92.9 34.42 102.21 25.53C104.44 23.4 107.07 21.48 109.91 19.67C111.43 18.9 112.95 18.12 114.47 17.35Z" />
</svg>